<?xml version="1.0" encoding="UTF-8" standalone="no"?>
<svg
   xmlns:ns="http://ns.adobe.com/SaveForWeb/1.0/"
   xmlns:dc="http://purl.org/dc/elements/1.1/"
   xmlns:cc="http://creativecommons.org/ns#"
   xmlns:rdf="http://www.w3.org/1999/02/22-rdf-syntax-ns#"
   xmlns:svg="http://www.w3.org/2000/svg"
   xmlns="http://www.w3.org/2000/svg"
   xmlns:xlink="http://www.w3.org/1999/xlink"
   xml:space="preserve"
   enable-background="new 0 0 128 128"
   overflow="visible"
   viewBox="0 0 128 128"
   height="128"
   width="128"
   id="svg1877"
   version="1.1"><defs
     id="defs282"><linearGradient
       id="linearGradient3435"><stop
         id="stop3437"
         offset="0"
         style="stop-color:#000000;stop-opacity:1;" /><stop
         id="stop3439"
         offset="1"
         style="stop-color:#000000;stop-opacity:0;" /></linearGradient><linearGradient
       id="linearGradient3388"><stop
         id="stop3390"
         offset="0"
         style="stop-color:#f7f7f7;stop-opacity:1;" /><stop
         id="stop3392"
         offset="1"
         style="stop-color:#f7f7f7;stop-opacity:0;" /></linearGradient><linearGradient
       id="linearGradient3372"><stop
         id="stop3374"
         offset="0"
         style="stop-color:#1c4f77;stop-opacity:1;" /><stop
         id="stop3376"
         offset="1"
         style="stop-color:#4a98d5;stop-opacity:1" /></linearGradient><linearGradient
       id="linearGradient4202"><stop
         id="stop4204"
         offset="0"
         style="stop-color:#ffffff;stop-opacity:1;" /><stop
         id="stop4206"
         offset="1"
         style="stop-color:#ffffff;stop-opacity:0.55696201;" /></linearGradient><linearGradient
       id="linearGradient4194"><stop
         id="stop4196"
         offset="0"
         style="stop-color:#8c0000;stop-opacity:1;" /><stop
         id="stop4198"
         offset="1"
         style="stop-color:#8c0000;stop-opacity:0.74683547;" /></linearGradient><linearGradient
       id="linearGradient3717"><stop
         style="stop-color:#696969;stop-opacity:0.15189873;"
         offset="0"
         id="stop3719" /><stop
         id="stop3721"
         offset="0.6046198"
         style="stop-color:#919191;stop-opacity:1;" /><stop
         style="stop-color:#bdbdbd;stop-opacity:0.39240506;"
         offset="1"
         id="stop3723" /></linearGradient><linearGradient
       id="linearGradient3709"><stop
         style="stop-color:#b3b3b3;stop-opacity:0.14901961;"
         offset="0"
         id="stop3711" /><stop
         id="stop3713"
         offset="0.66884249"
         style="stop-color:#919191;stop-opacity:1;" /><stop
         style="stop-color:#bdbdbd;stop-opacity:0.39240506;"
         offset="1"
         id="stop3715" /></linearGradient><linearGradient
       id="linearGradient3869"><stop
         style="stop-color:#696969;stop-opacity:0.15189873;"
         offset="0"
         id="stop3871" /><stop
         id="stop3873"
         offset="0.67074138"
         style="stop-color:#919191;stop-opacity:1;" /><stop
         style="stop-color:#bdbdbd;stop-opacity:0.39240506;"
         offset="1"
         id="stop3875" /></linearGradient><linearGradient
       id="linearGradient3851"><stop
         id="stop3853"
         offset="0"
         style="stop-color:#696969;stop-opacity:0.15189873;" /><stop
         style="stop-color:#919191;stop-opacity:1;"
         offset="0.5"
         id="stop3859" /><stop
         id="stop3855"
         offset="1"
         style="stop-color:#bdbdbd;stop-opacity:0.39240506;" /></linearGradient><linearGradient
       id="linearGradient3081"><stop
         id="stop3083"
         offset="0"
         style="stop-color:#003961;stop-opacity:1;" /><stop
         id="stop3085"
         offset="1"
         style="stop-color:#002954;stop-opacity:1;" /></linearGradient><filter
       id="filter3031"><feGaussianBlur
         id="feGaussianBlur3033"
         stdDeviation="0.26804993" /></filter><filter
       id="filter3035"><feGaussianBlur
         id="feGaussianBlur3037"
         stdDeviation="0.26774803" /></filter><filter
       id="filter3051"><feGaussianBlur
         id="feGaussianBlur3053"
         stdDeviation="0.12874266" /></filter><clipPath
       id="clipPath3069"
       clipPathUnits="userSpaceOnUse"><path
         style="fill:#e20071"
         d="M 115.446,90.505 L 107.6565,47.931 C 107.6565,47.931 12.50575,38.7485 15.292875,67.0105 C 18.08,95.2725 20.838,102.044 24.712,101.703 L 111.705,93.216 L 113.066,93.083 C 115.187,92.69 115.683,92.251 115.446,90.505 z"
         id="path3071" /></clipPath><filter
       id="filter3077"><feGaussianBlur
         id="feGaussianBlur3079"
         stdDeviation="0.39699429" /></filter><linearGradient
       gradientUnits="userSpaceOnUse"
       y2="96.192035"
       x2="115.49258"
       y1="96.192035"
       x1="20.673505"
       id="linearGradient3087"
       xlink:href="#linearGradient3081" /><filter
       id="filter4132"
       height="1.4088161"
       y="-0.20440804"
       width="1.1254614"
       x="-0.0627307"><feGaussianBlur
         id="feGaussianBlur4134"
         stdDeviation="2.3882525" /></filter><filter
       id="filter4188"><feGaussianBlur
         id="feGaussianBlur4190"
         stdDeviation="2.2899436" /></filter><linearGradient
       y2="96.192035"
       x2="115.49258"
       y1="96.192035"
       x1="20.673505"
       gradientUnits="userSpaceOnUse"
       id="linearGradient4192"
       xlink:href="#linearGradient3081" /><linearGradient
       gradientUnits="userSpaceOnUse"
       y2="24"
       x2="99.5"
       y1="24"
       x1="20"
       id="linearGradient4200"
       xlink:href="#linearGradient3081" /><linearGradient
       gradientUnits="userSpaceOnUse"
       y2="25"
       x2="99.5"
       y1="25"
       x1="20"
       id="linearGradient4208"
       xlink:href="#linearGradient4202" /><linearGradient
       gradientUnits="userSpaceOnUse"
       y2="98.609261"
       x2="109.12582"
       y1="117.11949"
       x1="87.614059"
       id="linearGradient3378"
       xlink:href="#linearGradient3372" /><clipPath
       id="clipPath3431"
       clipPathUnits="userSpaceOnUse"><path
         id="path3433"
         d="M 24.447476,120.66576 L 110.56839,111.03052 C 112.32753,105.60645 111.85875,98.324423 112.10914,92.027285 L 24.75307,100.67122 C 21.724379,101.26066 20.106276,112.10464 20.95498,119.44338 L 24.447476,120.66576 z"
         style="fill:none;fill-rule:evenodd;stroke:#000000;stroke-width:1px;stroke-linecap:butt;stroke-linejoin:miter;stroke-opacity:1" /></clipPath><radialGradient
       gradientUnits="userSpaceOnUse"
       gradientTransform="matrix(1.2985083,-0.2449299,5.327523e-2,0.2824413,-25.476622,92.137656)"
       r="45.629332"
       fy="105.71228"
       fx="66.479805"
       cy="105.71228"
       cx="66.479805"
       id="radialGradient3441"
       xlink:href="#linearGradient3435" /><linearGradient
       gradientUnits="userSpaceOnUse"
       y2="135.04926"
       x2="24.098225"
       y1="95.234787"
       x1="115.14789"
       id="linearGradient3483"
       xlink:href="#linearGradient3388" /><linearGradient
       y2="135.04926"
       x2="24.098225"
       y1="95.234787"
       x1="115.14789"
       gradientUnits="userSpaceOnUse"
       id="linearGradient3485"
       xlink:href="#linearGradient3388" /><linearGradient
       y2="135.04926"
       x2="24.098225"
       y1="95.234787"
       x1="115.14789"
       gradientUnits="userSpaceOnUse"
       id="linearGradient3487"
       xlink:href="#linearGradient3388" /><linearGradient
       y2="135.04926"
       x2="24.098225"
       y1="95.234787"
       x1="115.14789"
       gradientUnits="userSpaceOnUse"
       id="linearGradient3489"
       xlink:href="#linearGradient3388" /><linearGradient
       y2="135.04926"
       x2="24.098225"
       y1="95.234787"
       x1="115.14789"
       gradientUnits="userSpaceOnUse"
       id="linearGradient3491"
       xlink:href="#linearGradient3388" /><linearGradient
       y2="135.04926"
       x2="24.098225"
       y1="95.234787"
       x1="115.14789"
       gradientUnits="userSpaceOnUse"
       id="linearGradient3493"
       xlink:href="#linearGradient3388" /><linearGradient
       y2="135.04926"
       x2="24.098225"
       y1="95.234787"
       x1="115.14789"
       gradientUnits="userSpaceOnUse"
       id="linearGradient3495"
       xlink:href="#linearGradient3388" /><linearGradient
       y2="135.04926"
       x2="24.098225"
       y1="95.234787"
       x1="115.14789"
       gradientUnits="userSpaceOnUse"
       id="linearGradient3497"
       xlink:href="#linearGradient3388" /><linearGradient
       y2="135.04926"
       x2="24.098225"
       y1="95.234787"
       x1="115.14789"
       gradientUnits="userSpaceOnUse"
       id="linearGradient3499"
       xlink:href="#linearGradient3388" /><linearGradient
       y2="135.04926"
       x2="24.098225"
       y1="95.234787"
       x1="115.14789"
       gradientUnits="userSpaceOnUse"
       id="linearGradient3501"
       xlink:href="#linearGradient3388" /></defs><metadata
     id="metadata1882"><rdf:RDF><cc:Work
         rdf:about=""><dc:format>image/svg+xml</dc:format><dc:type
           rdf:resource="http://purl.org/dc/dcmitype/StillImage" /><dc:title></dc:title></cc:Work></rdf:RDF><ns:sfw><ns:slices /><ns:sliceSourceBounds
         bottomLeftOrigin="true"
         width="113.736"
         height="121"
         y="3"
         x="8" /></ns:sfw></metadata><filter
     id="AI_Sfocatura_3"><feGaussianBlur
       id="feGaussianBlur5"
       stdDeviation="3" /></filter><linearGradient
     gradientTransform="translate(0,-1)"
     y2="99.0564"
     x2="66.3574"
     y1="118.2754"
     x1="66.3574"
     gradientUnits="userSpaceOnUse"
     id="path2797_1_"><stop
       id="stop8"
       style="stop-color:#DEDEDE"
       offset="0" /><stop
       id="stop10"
       style="stop-color:#FFFFFF"
       offset="1" /></linearGradient><path
     transform="matrix(0.9870646,0,0,0.9451576,-0.9030608,6.8273745)"
     id="path4186"
     d="M 97.375,3.5 C 97.147705,3.508416 96.889875,3.538125 96.625,3.5625 L 15.0625,9.84375 L 13.8125,10.25 L 12.6875,10.21875 L 10.65625,10.40625 C 9.1452499,10.54625 8.067,13.16275 7.75,14.84375 C 7.4329999,16.52475 7.5,26.15625 7.5,26.15625 L 18.4375,119.125 C 18.913501,121.244 19.83525,124.80275 22.03125,124.46875 L 22.8125,124.375 L 22.8125,124.40625 L 109.59375,115.5625 C 111.71375,115.3685 113.1765,113.77625 112.9375,112.03125 L 112.09375,93.1875 L 113.0625,93.09375 C 115.1835,92.70075 115.6745,92.246 115.4375,90.5 L 99.875,5.34375 C 99.666753,3.8160001 98.966064,3.4410879 97.375,3.5 z"
     style="opacity:0.6;fill:#000000;fill-opacity:1;filter:url(#filter4188)" /><path
     style="fill:url(#path2797_1_)"
     d="M 111.992,92.187 C 111.992,92.187 112.508,107.358 110.281,111.728 L 22.479,121.437 C 19.083,121.955 20.838,101.044 24.712,100.703 L 111.992,92.187 z"
     id="path2797" /><g
     transform="translate(-20,-1)"
     id="g13"><defs
       id="defs15"><path
         d="M 111.992,92.226 C 111.992,92.226 112.508,107.397 110.281,111.767 L 22.479,121.476 C 19.083,121.994 20.838,101.083 24.712,100.743 L 111.992,92.226 z"
         id="path2797_2_" /></defs><clipPath
       id="path2797_3_"><use
         height="128"
         width="128"
         y="0"
         x="0"
         id="use19"
         xlink:href="#path2797_2_" /></clipPath><g
       transform="translate(20,0)"
       style="filter:url(#filter4132)"
       id="g21"
       clip-path="url(#path2797_3_)"><linearGradient
         y2="105.2852"
         x2="112.043"
         y1="105.2852"
         x1="20.4004"
         gradientUnits="userSpaceOnUse"
         id="XMLID_1_"><stop
           id="stop24"
           style="stop-color:#2E3436"
           offset="0.3195" /><stop
           id="stop26"
           style="stop-color:#888A85"
           offset="1" /></linearGradient><path
         style="fill:url(#XMLID_1_)"
         id="path28"
         d="M 25.677,102.664 L 112.043,94.237 C 112.032,92.443 111.992,90.303 111.992,90.303 L 23.748,98.82 C 20.168,99.134 19.364,117.966 21.797,120.267 C 21.089,114.534 22.796,102.917 25.677,102.664 z" /></g></g><radialGradient
     gradientUnits="userSpaceOnUse"
     gradientTransform="matrix(1,0,0,0.9966,0,-0.7838)"
     r="152.103"
     cy="-24.1943"
     cx="23.4214"
     id="XMLID_3_"><stop
       id="stop31"
       style="stop-color:#90b5e2;stop-opacity:1;"
       offset="0.0533" /><stop
       id="stop33"
       style="stop-color:#1b67a7;stop-opacity:1;"
       offset="0.6627" /><stop
       id="stop35"
       style="stop-color:#21648a;stop-opacity:1;"
       offset="0.90530002" /></radialGradient><path
     style="fill:url(#XMLID_3_)"
     id="path37"
     d="M 115.446,89.505 L 99.867,4.357 C 99.629,2.611 98.75,2.361 96.631,2.556 L 15.069,8.845 L 13.819,9.255 L 12.674,9.226 L 10.663,9.399 C 9.152,9.539 21.056,122.517 21.056,122.517 L 22.479,121.437 C 19.083,121.955 20.838,101.044 24.712,100.703 L 111.705,92.216 L 113.066,92.083 C 115.187,91.69 115.683,91.251 115.446,89.505 z" /><linearGradient
     gradientTransform="translate(0,-1)"
     y2="67.0882"
     x2="19.3589"
     y1="68.4072"
     x1="8.9722"
     gradientUnits="userSpaceOnUse"
     id="XMLID_4_"><stop
       id="stop40"
       style="stop-color:#21698a;stop-opacity:1;"
       offset="0.3136" /><stop
       id="stop42"
       style="stop-color:#23618c;stop-opacity:1;"
       offset="0.53670001" /><stop
       id="stop44"
       style="stop-color:#2a6e94;stop-opacity:1;"
       offset="0.63990003" /><stop
       id="stop46"
       style="stop-color:#367ea0;stop-opacity:1;"
       offset="0.71850002" /><stop
       id="stop48"
       style="stop-color:#4690b3;stop-opacity:1;"
       offset="0.7845" /><stop
       id="stop50"
       style="stop-color:#5ca7ca;stop-opacity:1;"
       offset="0.84219998" /><stop
       id="stop52"
       style="stop-color:#66b2d5;stop-opacity:1;"
       offset="0.86390001" /><stop
       id="stop54"
       style="stop-color:#90c8e2;stop-opacity:1;"
       offset="0.91720003" /><stop
       id="stop56"
       style="stop-color:#12597a;stop-opacity:1;"
       offset="1" /></linearGradient><path
     style="fill:url(#XMLID_4_)"
     id="path58"
     d="M 22.479,121.437 C 19.083,121.955 20.838,101.044 24.712,100.703 C 24.712,100.703 12.676,9.23 12.674,9.227 L 10.663,9.4 C 9.152,9.54 8.059,12.171 7.742,13.852 C 7.425,15.533 7.511,25.165 7.511,25.165 L 18.446,118.115 C 18.922,120.234 19.825,123.813 22.021,123.479 L 25.563,123.093 L 26.592,120.982 L 22.479,121.437 z" /><linearGradient
     gradientTransform="translate(0,-1)"
     y2="55.168"
     x2="24.7346"
     y1="56.1646"
     x1="17.644"
     gradientUnits="userSpaceOnUse"
     id="XMLID_5_"><stop
       id="stop61"
       style="stop-color:#0f629c;stop-opacity:1;"
       offset="0" /><stop
       id="stop63"
       style="stop-color:#ffffff;stop-opacity:1;"
       offset="0.31600001" /><stop
       id="stop65"
       style="stop-color:#0384bf;stop-opacity:1;"
       offset="0.60290003" /></linearGradient><path
     style="opacity:0.5;fill:url(#XMLID_5_)"
     id="path67"
     d="M 24.712,100.702 L 28.244,100.359 L 15.431,8.817 L 15.07,8.845 L 13.82,9.255 L 12.675,9.226 L 11.839,9.298 L 24.367,100.791 C 24.479,100.744 24.595,100.713 24.712,100.702 z" /><g
     transform="translate(0,-1)"
     id="g69"><g
       id="g71"><linearGradient
         xlink:href="#XMLID_3_"
         y2="90.542198"
         x2="111.5255"
         y1="116.3115"
         x1="70.734398"
         gradientUnits="userSpaceOnUse"
         id="XMLID_6_"><stop
           id="stop74"
           style="stop-color:#215a8a;stop-opacity:1;"
           offset="1" /><stop
           offset="1"
           style="stop-color:#85bce2;stop-opacity:1;"
           id="stop3368" /></linearGradient><path
         style="fill:url(#linearGradient3378);fill-opacity:1"
         id="path88"
         d="M 112.942,112.02 L 112.096,93.082 L 111.992,93.186 C 111.992,93.186 112.508,108.357 110.281,112.727 L 22.479,122.436 L 22.797,124.393 L 109.6,115.556 C 111.72,115.362 113.181,113.765 112.942,112.02 z" /></g></g><g
     transform="translate(0,-1)"
     style="fill:url(#linearGradient3087);fill-opacity:1;filter:url(#filter3077)"
     clip-path="url(#clipPath3069)"
     id="g90"><linearGradient
       y2="103.2647"
       x2="20.6738"
       y1="103.2646"
       x1="115.4932"
       gradientUnits="userSpaceOnUse"
       id="XMLID_7_"><stop
         id="stop93"
         style="stop-color:#590000;fill-opacity:1;fill:url(#linearGradient3087)"
         offset="0" /><stop
         id="stop95"
         style="stop-color:#8A2121;fill-opacity:1;fill:url(#linearGradient3087)"
         offset="0.9053" /></linearGradient><path
       style="fill:url(#linearGradient4192);fill-opacity:1"
       id="path97"
       d="M 113.066,92.121 L 111.705,92.254 L 24.712,100.742 C 22.206,100.962 20.588,109.793 20.677,115.86 C 20.758,109.864 22.335,101.913 24.712,101.702 L 111.705,93.215 L 113.066,93.082 C 115.113,92.704 115.639,92.27 115.46,90.669 C 115.305,91.514 114.629,91.831 113.066,92.121 z" /></g><linearGradient
     xlink:href="#XMLID_5_"
     gradientTransform="translate(0,-1)"
     y2="101.7021"
     x2="22.209499"
     y1="122.4463"
     x1="22.209499"
     gradientUnits="userSpaceOnUse"
     id="XMLID_8_"><stop
       id="stop100"
       style="stop-color:#9C0F0F"
       offset="0" /><stop
       id="stop102"
       style="stop-color:#FF8080"
       offset="1" /></linearGradient><g
     transform="translate(0,-1)"
     id="g106"><g
       style="filter:url(#filter3031)"
       id="g108"><path
         style="fill:#5c98de;fill-opacity:1"
         id="path110"
         d="M 46.652,59.42 C 46.196,58.452 45.996,58.338 44.651,58.5 L 37.912,59.311 C 36.803,59.443 36.555,59.612 36.374,60.6 L 35.465,65.557 C 35.075,67.689 34.927,68.957 34.995,69.463 C 35.07,70.012 35.329,70.261 36.409,70.233 L 37.902,70.203 C 38.247,70.398 38.346,71.135 37.968,71.362 C 36.796,71.402 35.412,71.554 33.315,71.743 C 31.85,71.905 30.266,72.176 29.079,72.359 C 28.79,72.204 28.607,71.483 28.844,71.221 L 30.283,70.922 C 31.332,70.712 32.241,70.098 32.645,68.383 C 33.164,66.193 34.011,63.093 35.187,57.801 L 38.036,45.133 C 38.432,43.452 38.579,42.573 38.348,41.88 C 39.361,41.43 39.999,40.532 40.404,39.891 C 40.668,39.856 40.991,39.905 41.122,40.202 C 41.971,42.081 42.969,44.037 43.914,45.918 L 52.707,63.416 C 54.613,67.236 55.31,67.867 57.315,67.876 L 58.577,67.876 C 58.932,68.072 58.952,68.828 58.752,69.039 C 56.853,69.158 55.241,69.288 53.183,69.519 C 50.992,69.766 49.278,70.051 47.968,70.245 C 47.579,70.102 47.428,69.366 47.711,69.099 L 49.008,68.814 C 49.948,68.613 50.544,68.265 50.478,67.8 C 50.405,67.294 50.057,66.49 49.536,65.421 L 46.652,59.42 z M 37.25,56.449 C 37.039,57.529 37.089,57.57 38.33,57.418 L 43.813,56.754 C 45.109,56.595 45.174,56.402 44.596,55.228 L 41.158,48.184 C 40.654,47.155 40.086,46 39.748,45.5 L 39.66,45.51 C 39.557,45.75 39.264,46.879 38.963,48.281 L 37.25,56.449 z" /><path
         style="fill:#5c98de;fill-opacity:1"
         id="path112"
         d="M 57.03,42.799 C 56.629,40.146 56.542,39.883 55.069,39.257 L 54.579,39.047 C 54.333,38.943 54.239,38.317 54.445,38.152 C 55.418,37.61 57.494,36.74 59.073,35.615 C 59.254,35.593 59.448,35.657 59.565,35.824 C 59.716,37.403 59.937,39.435 60.24,41.413 L 61.555,49.982 C 61.675,50.76 61.888,50.919 62.16,50.886 C 63.246,50.053 64.954,49.002 67.206,48.719 C 72.478,48.059 76.709,51.576 77.545,56.679 C 78.561,62.894 74.744,67.776 68.467,68.476 C 66.741,68.667 65.389,68.485 64.418,68.309 C 63.394,68.091 62.751,67.877 62.379,67.918 C 62.008,67.96 61.697,68.376 61.514,68.727 C 61.474,68.779 61.429,68.784 61.337,68.794 C 61.153,68.815 60.954,68.741 60.833,68.567 C 60.78,67.91 60.691,67.018 60.329,64.602 L 57.03,42.799 z M 63.394,61.939 C 63.642,63.562 64.234,64.96 65.172,65.849 C 66.112,66.742 67.454,67.161 68.948,66.995 C 73.346,66.499 74.478,62.553 73.836,58.541 C 73.065,53.768 70.016,50.381 65.447,50.948 C 64.066,51.117 63.015,51.574 62.435,52.063 C 62.027,52.441 62.013,52.954 62.288,54.745 L 63.394,61.939 z" /><path
         style="fill:#5c98de;fill-opacity:1"
         id="path114"
         d="M 95.184,46.033 C 95.626,46.31 96.091,47.015 96.235,47.807 C 96.383,48.648 96.059,49.594 95.485,49.664 C 95.245,49.694 94.988,49.63 94.756,49.42 C 93.479,48.289 91.506,47.296 89.552,47.539 C 86.236,47.953 83.453,50.896 84.283,55.832 C 84.898,59.484 88.217,63.573 93.356,62.991 C 96.154,62.674 97.386,61.274 98.216,59.532 C 98.586,59.393 99.083,59.675 99.207,60.096 C 98.183,63.803 94.78,65.544 91.98,65.856 C 89.433,66.141 86.948,65.596 85.004,64.175 C 83.076,62.761 81.597,60.584 81.094,57.542 C 80.261,52.515 82.946,46.752 90.8,45.772 C 91.894,45.635 93.795,45.636 95.184,46.033 z" /></g><g
       style="filter:url(#filter3035)"
       id="g116"><path
         style="fill:#00428c;fill-opacity:1"
         id="path118"
         d="M 46.741,57.343 C 46.285,56.379 46.085,56.266 44.741,56.429 L 38.01,57.248 C 36.902,57.381 36.654,57.551 36.473,58.536 L 35.566,63.483 C 35.174,65.608 35.028,66.877 35.096,67.379 C 35.169,67.928 35.429,68.176 36.509,68.145 L 37.998,68.115 C 38.343,68.311 38.443,69.042 38.066,69.271 C 36.894,69.313 35.512,69.468 33.417,69.658 C 31.954,69.824 30.371,70.097 29.186,70.277 C 28.897,70.125 28.715,69.406 28.951,69.148 L 30.389,68.845 C 31.438,68.633 32.345,68.018 32.748,66.307 C 33.267,64.123 34.111,61.027 35.287,55.745 L 38.132,43.102 C 38.527,41.422 38.676,40.545 38.444,39.854 C 39.455,39.403 40.093,38.506 40.496,37.867 C 40.761,37.831 41.081,37.878 41.215,38.175 C 42.064,40.048 43.059,41.999 44.005,43.874 L 52.79,61.318 C 54.694,65.128 55.389,65.754 57.392,65.761 L 58.653,65.756 C 59.008,65.954 59.028,66.707 58.827,66.919 C 56.931,67.039 55.319,67.176 53.265,67.407 C 51.076,67.655 49.363,67.942 48.055,68.138 C 47.666,67.996 47.517,67.263 47.799,66.994 L 49.095,66.706 C 50.033,66.506 50.629,66.155 50.562,65.695 C 50.49,65.186 50.143,64.383 49.622,63.322 L 46.741,57.343 z M 37.348,54.394 C 37.137,55.471 37.185,55.512 38.427,55.359 L 43.904,54.687 C 45.199,54.527 45.266,54.334 44.687,53.164 L 41.253,46.141 C 40.749,45.118 40.181,43.965 39.843,43.465 L 39.754,43.476 C 39.653,43.715 39.36,44.843 39.06,46.243 L 37.348,54.394 z" /><path
         style="fill:#00428c;fill-opacity:1"
         id="path120"
         d="M 57.109,40.745 C 56.707,38.1 56.62,37.836 55.149,37.213 L 54.657,37.005 C 54.412,36.902 54.32,36.278 54.523,36.114 C 55.497,35.571 57.569,34.701 59.148,33.576 C 59.328,33.552 59.522,33.616 59.641,33.783 C 59.79,35.358 60.01,37.387 60.314,39.36 L 61.628,47.907 C 61.747,48.682 61.959,48.841 62.232,48.806 C 63.315,47.974 65.023,46.923 67.272,46.638 C 72.539,45.971 76.765,49.472 77.598,54.563 C 78.614,60.761 74.802,65.64 68.534,66.347 C 66.809,66.541 65.457,66.36 64.489,66.186 C 63.466,65.969 62.822,65.76 62.452,65.8 C 62.081,65.842 61.769,66.256 61.588,66.609 C 61.548,66.659 61.503,66.664 61.41,66.677 C 61.227,66.698 61.029,66.624 60.908,66.449 C 60.854,65.793 60.767,64.904 60.403,62.494 L 57.109,40.745 z M 63.464,59.831 C 63.712,61.449 64.303,62.844 65.242,63.73 C 66.18,64.617 67.521,65.034 69.012,64.864 C 73.407,64.364 74.539,60.425 73.895,56.425 C 73.126,51.661 70.079,48.288 65.513,48.861 C 64.137,49.031 63.086,49.49 62.507,49.979 C 62.1,50.357 62.085,50.869 62.36,52.654 L 63.464,59.831 z" /><path
         style="fill:#00428c;fill-opacity:1"
         id="path122"
         d="M 95.22,43.912 C 95.661,44.187 96.127,44.889 96.269,45.679 C 96.417,46.518 96.095,47.462 95.52,47.533 C 95.279,47.563 95.023,47.5 94.791,47.292 C 93.517,46.167 91.542,45.178 89.594,45.423 C 86.279,45.839 83.499,48.782 84.327,53.705 C 84.944,57.349 88.26,61.422 93.391,60.832 C 96.185,60.512 97.419,59.113 98.249,57.375 C 98.618,57.235 99.11,57.516 99.236,57.936 C 98.213,61.637 94.815,63.379 92.019,63.696 C 89.475,63.982 86.992,63.445 85.051,62.029 C 83.124,60.622 81.648,58.451 81.146,55.417 C 80.312,50.402 82.993,44.65 90.837,43.659 C 91.934,43.517 93.828,43.517 95.22,43.912 z" /></g><g
       id="g124"><radialGradient
         gradientUnits="userSpaceOnUse"
         gradientTransform="matrix(0.9963,4.81e-2,2.6e-3,0.8585,3.0582,-24.9269)"
         r="193.40891"
         cy="30.882299"
         cx="7.2905002"
         id="XMLID_9_"><stop
           id="stop127"
           style="stop-color:#FFFFFF"
           offset="0.4852" /><stop
           id="stop129"
           style="stop-color:#D3D7CF"
           offset="0.9053" /></radialGradient><path
         style="fill:url(#XMLID_9_)"
         id="path131"
         d="M 46.697,58.381 C 46.239,57.416 46.042,57.301 44.697,57.464 L 37.962,58.278 C 36.852,58.413 36.604,58.58 36.423,59.568 L 35.514,64.519 C 35.123,66.648 34.977,67.915 35.044,68.419 C 35.118,68.968 35.377,69.215 36.459,69.189 L 37.949,69.157 C 38.293,69.353 38.394,70.087 38.016,70.315 C 36.844,70.355 35.46,70.509 33.364,70.698 C 31.899,70.864 30.317,71.136 29.131,71.315 C 28.842,71.163 28.66,70.442 28.896,70.184 L 30.335,69.882 C 31.383,69.668 32.292,69.057 32.694,67.342 C 33.213,65.156 34.058,62.059 35.236,56.772 L 38.082,44.117 C 38.478,42.435 38.625,41.559 38.396,40.866 C 39.407,40.417 40.044,39.518 40.448,38.879 C 40.713,38.843 41.034,38.891 41.168,39.187 C 42.016,41.063 43.013,43.017 43.958,44.896 L 52.746,62.366 C 54.651,66.18 55.348,66.809 57.351,66.819 L 58.613,66.817 C 58.967,67.013 58.988,67.766 58.787,67.978 C 56.89,68.098 55.277,68.233 53.222,68.465 C 51.033,68.709 49.319,68.997 48.009,69.192 C 47.62,69.046 47.471,68.314 47.753,68.046 L 49.049,67.759 C 49.989,67.557 50.585,67.21 50.518,66.748 C 50.446,66.24 50.099,65.436 49.578,64.373 L 46.697,58.381 z M 37.299,55.421 C 37.087,56.5 37.136,56.54 38.377,56.388 L 43.857,55.72 C 45.153,55.561 45.218,55.368 44.64,54.197 L 41.205,47.163 C 40.7,46.135 40.132,44.984 39.795,44.482 L 39.705,44.493 C 39.603,44.734 39.311,45.862 39.01,47.263 L 37.299,55.421 z" /><radialGradient
         gradientUnits="userSpaceOnUse"
         gradientTransform="matrix(0.9963,4.81e-2,2.6e-3,0.8585,3.0582,-24.9269)"
         r="185.8085"
         cy="29.642099"
         cx="9.0815001"
         id="XMLID_10_"><stop
           id="stop134"
           style="stop-color:#FFFFFF"
           offset="0.4852" /><stop
           id="stop136"
           style="stop-color:#D3D7CF"
           offset="0.9053" /></radialGradient><path
         style="fill:url(#XMLID_10_)"
         id="path138"
         d="M 57.069,41.772 C 56.668,39.123 56.582,38.859 55.109,38.234 L 54.618,38.026 C 54.373,37.921 54.279,37.297 54.484,37.13 C 55.458,36.589 57.532,35.719 59.11,34.595 C 59.291,34.571 59.485,34.635 59.602,34.801 C 59.753,36.379 59.974,38.409 60.277,40.385 L 61.592,48.944 C 61.712,49.718 61.924,49.877 62.196,49.843 C 63.282,49.011 64.988,47.96 67.241,47.676 C 72.51,47.013 76.736,50.524 77.571,55.619 C 78.589,61.825 74.776,66.706 68.501,67.408 C 66.776,67.603 65.424,67.422 64.454,67.245 C 63.43,67.027 62.787,66.817 62.417,66.859 C 62.046,66.897 61.734,67.312 61.552,67.666 C 61.512,67.718 61.467,67.722 61.374,67.733 C 61.191,67.755 60.993,67.681 60.872,67.506 C 60.818,66.849 60.731,65.958 60.366,63.545 L 57.069,41.772 z M 63.429,60.883 C 63.677,62.506 64.269,63.902 65.208,64.789 C 66.148,65.678 67.488,66.096 68.979,65.928 C 73.376,65.43 74.51,61.488 73.866,57.483 C 73.095,52.713 70.048,49.335 65.479,49.902 C 64.102,50.073 63.052,50.53 62.473,51.021 C 62.065,51.398 62.049,51.911 62.323,53.699 L 63.429,60.883 z" /><radialGradient
         gradientUnits="userSpaceOnUse"
         gradientTransform="matrix(0.9963,4.81e-2,2.6e-3,0.8585,3.0582,-24.9269)"
         r="192.9373"
         cy="23.8081"
         cx="4.6436"
         id="XMLID_11_"><stop
           id="stop141"
           style="stop-color:#FFFFFF"
           offset="0.4852" /><stop
           id="stop143"
           style="stop-color:#D3D7CF"
           offset="0.9053" /></radialGradient><path
         style="fill:url(#XMLID_11_)"
         id="path145"
         d="M 95.2,44.971 C 95.641,45.248 96.108,45.952 96.252,46.742 C 96.399,47.582 96.076,48.527 95.502,48.598 C 95.261,48.628 95.005,48.564 94.771,48.356 C 93.498,47.226 91.522,46.236 89.574,46.48 C 86.257,46.895 83.475,49.839 84.307,54.768 C 84.922,58.415 88.236,62.496 93.372,61.911 C 96.17,61.593 97.403,60.193 98.232,58.454 C 98.601,58.313 99.097,58.594 99.221,59.016 C 98.196,62.719 94.798,64.462 91.999,64.776 C 89.453,65.061 86.972,64.521 85.029,63.102 C 83.099,61.691 81.623,59.517 81.12,56.479 C 80.284,51.458 82.97,45.702 90.816,44.714 C 91.914,44.577 93.812,44.574 95.2,44.971 z" /></g></g><line
     style="opacity:0.50000000000000000;fill:none;stroke:url(#linearGradient4208);stroke-linecap:round"
     id="line261"
     y2="28.497999"
     x2="20.5"
     y1="21.502001"
     x1="99" /><line
     style="opacity:0.50000000000000000;fill:none;stroke:url(#linearGradient4200);stroke-linecap:round"
     id="line263"
     y2="27.497999"
     x2="20.5"
     y1="20.502001"
     x1="99" /><path
     style="fill:#00428c;filter:url(#filter3051);fill-opacity:1"
     id="path104"
     d="M 24.712,100.702 L 23.748,100.702 C 19.874,101.044 18.118,121.954 21.515,121.436 L 22.074,121.374 C 19.24,120.184 21.005,101.029 24.712,100.702 z" /><g
     transform="translate(0,-1)"
     style="fill:#e20071"
     id="g4158"><g
       style="fill:#e20071"
       id="g4160"><linearGradient
         id="linearGradient4162"
         gradientUnits="userSpaceOnUse"
         x1="70.734398"
         y1="116.3115"
         x2="111.5255"
         y2="90.542198"><stop
           offset="0.3136"
           style="stop-color:#8A2121"
           id="stop4164" /><stop
           offset="0.4265"
           style="stop-color:#8E2525"
           id="stop4166" /><stop
           offset="0.5426"
           style="stop-color:#9A3130"
           id="stop4168" /><stop
           offset="0.6601"
           style="stop-color:#AF4543"
           id="stop4170" /><stop
           offset="0.7779"
           style="stop-color:#CC605D"
           id="stop4172" /><stop
           offset="0.8107"
           style="stop-color:#D56966"
           id="stop4174" /><stop
           offset="1"
           style="stop-color:#E29390"
           id="stop4176" /></linearGradient></g></g><g
     style="stroke:url(#radialGradient3441)"
     clip-path="url(#clipPath3431)"
     id="g3418"><path
       style="fill:none;fill-rule:evenodd;stroke:url(#radialGradient3441);stroke-width:0.20000000000000001;stroke-linecap:butt;stroke-linejoin:miter;stroke-miterlimit:4;stroke-dasharray:none;stroke-opacity:1"
       d="M 22.350477,103.72715 L 113.17626,94.497408"
       id="path3396" /><path
       id="path3398"
       d="M 20.950477,118.72715 L 113.67626,109.29741"
       style="fill:none;fill-rule:evenodd;stroke:url(#radialGradient3441);stroke-width:0.20000000000000001;stroke-linecap:butt;stroke-linejoin:miter;stroke-miterlimit:4;stroke-dasharray:none;stroke-opacity:1" /><path
       style="fill:none;fill-rule:evenodd;stroke:url(#radialGradient3441);stroke-width:0.20000000000000001;stroke-linecap:butt;stroke-linejoin:miter;stroke-miterlimit:4;stroke-dasharray:none;stroke-opacity:1"
       d="M 20.950477,111.72715 L 113.67626,102.29741"
       id="path3402" /><path
       id="path3404"
       d="M 20.950477,107.72715 L 113.67626,98.29741"
       style="fill:none;fill-rule:evenodd;stroke:url(#radialGradient3441);stroke-width:0.20000000000000001;stroke-linecap:butt;stroke-linejoin:miter;stroke-miterlimit:4;stroke-dasharray:none;stroke-opacity:1" /><path
       style="fill:none;fill-rule:evenodd;stroke:url(#radialGradient3441);stroke-width:0.20000000000000001;stroke-linecap:butt;stroke-linejoin:miter;stroke-miterlimit:4;stroke-dasharray:none;stroke-opacity:1"
       d="M 20.950477,115.72715 L 113.67626,106.29741"
       id="path3408" /><path
       id="path3410"
       d="M 20.950477,113.72715 L 113.67626,104.29741"
       style="fill:none;fill-rule:evenodd;stroke:url(#radialGradient3441);stroke-width:0.20000000000000001;stroke-linecap:butt;stroke-linejoin:miter;stroke-miterlimit:4;stroke-dasharray:none;stroke-opacity:1" /><path
       style="fill:none;fill-rule:evenodd;stroke:url(#radialGradient3441);stroke-width:0.20000000000000001;stroke-linecap:butt;stroke-linejoin:miter;stroke-miterlimit:4;stroke-dasharray:none;stroke-opacity:1"
       d="M 20.950477,109.72715 L 113.67626,100.29741"
       id="path3412" /><path
       id="path3414"
       d="M 20.950477,106.02715 L 113.67626,96.59741"
       style="fill:none;fill-rule:evenodd;stroke:url(#radialGradient3441);stroke-width:0.20000000000000001;stroke-linecap:butt;stroke-linejoin:miter;stroke-miterlimit:4;stroke-dasharray:none;stroke-opacity:1" /><path
       style="fill:none;fill-rule:evenodd;stroke:url(#radialGradient3441);stroke-width:0.20000000000000001;stroke-linecap:butt;stroke-linejoin:miter;stroke-miterlimit:4;stroke-dasharray:none;stroke-opacity:1"
       d="M 20.950477,102.12715 L 113.67626,92.69741"
       id="path3416" /></g><g
     transform="translate(0,-10e-2)"
     id="g3443"
     clip-path="url(#clipPath3431)"
     style="stroke:url(#linearGradient3483);stroke-width:0.39999997;stroke-miterlimit:4;stroke-dasharray:none"><path
       id="path3445"
       d="M 22.350477,103.72715 L 113.17626,94.497408"
       style="fill:none;fill-rule:evenodd;stroke:url(#linearGradient3485);stroke-width:0.39999997;stroke-linecap:butt;stroke-linejoin:miter;stroke-miterlimit:4;stroke-dasharray:none;stroke-opacity:1" /><path
       style="fill:none;fill-rule:evenodd;stroke:url(#linearGradient3487);stroke-width:0.39999997;stroke-linecap:butt;stroke-linejoin:miter;stroke-miterlimit:4;stroke-dasharray:none;stroke-opacity:1"
       d="M 20.950477,118.72715 L 113.67626,109.29741"
       id="path3447" /><path
       id="path3449"
       d="M 20.950477,111.72715 L 113.67626,102.29741"
       style="fill:none;fill-rule:evenodd;stroke:url(#linearGradient3489);stroke-width:0.39999997;stroke-linecap:butt;stroke-linejoin:miter;stroke-miterlimit:4;stroke-dasharray:none;stroke-opacity:1" /><path
       style="fill:none;fill-rule:evenodd;stroke:url(#linearGradient3491);stroke-width:0.39999997;stroke-linecap:butt;stroke-linejoin:miter;stroke-miterlimit:4;stroke-dasharray:none;stroke-opacity:1"
       d="M 20.950477,107.72715 L 113.67626,98.29741"
       id="path3451" /><path
       id="path3453"
       d="M 20.950477,115.72715 L 113.67626,106.29741"
       style="fill:none;fill-rule:evenodd;stroke:url(#linearGradient3493);stroke-width:0.39999997;stroke-linecap:butt;stroke-linejoin:miter;stroke-miterlimit:4;stroke-dasharray:none;stroke-opacity:1" /><path
       style="fill:none;fill-rule:evenodd;stroke:url(#linearGradient3495);stroke-width:0.39999997;stroke-linecap:butt;stroke-linejoin:miter;stroke-miterlimit:4;stroke-dasharray:none;stroke-opacity:1"
       d="M 20.950477,113.72715 L 113.67626,104.29741"
       id="path3455" /><path
       id="path3457"
       d="M 20.950477,109.72715 L 113.67626,100.29741"
       style="fill:none;fill-rule:evenodd;stroke:url(#linearGradient3497);stroke-width:0.39999997;stroke-linecap:butt;stroke-linejoin:miter;stroke-miterlimit:4;stroke-dasharray:none;stroke-opacity:1" /><path
       style="fill:none;fill-rule:evenodd;stroke:url(#linearGradient3499);stroke-width:0.39999997;stroke-linecap:butt;stroke-linejoin:miter;stroke-miterlimit:4;stroke-dasharray:none;stroke-opacity:1"
       d="M 20.950477,106.02715 L 113.67626,96.59741"
       id="path3459" /><path
       id="path3461"
       d="M 20.950477,102.12715 L 113.67626,92.69741"
       style="fill:none;fill-rule:evenodd;stroke:url(#linearGradient3501);stroke-width:0.39999997;stroke-linecap:butt;stroke-linejoin:miter;stroke-miterlimit:4;stroke-dasharray:none;stroke-opacity:1" /></g></svg>